<svg xmlns="http://www.w3.org/2000/svg" width="24" height="24" viewBox="0 0 24 24"><defs><style>.a,.b{fill:none;}.b{stroke:#fff;stroke-width:2px;}.c{fill:#fff;}</style></defs><rect class="a" width="24" height="24"/><g transform="translate(-665.037 -1431.018)"><path class="b" d="M22.5,4.5h4.465V8.965" transform="translate(656.467 1431.519)"/><path class="b" d="M8.965,26.965H4.5V22.5" transform="translate(665.537 1422.449)"/></g><path class="c" d="M6.25,7.383a4.3,4.3,0,0,0-4,2.7,4.315,4.315,0,0,0,8,0A4.3,4.3,0,0,0,6.25,7.383Zm0,4.495a1.8,1.8,0,1,1,1.818-1.8A1.813,1.813,0,0,1,6.25,11.877ZM6.25,9a1.079,1.079,0,1,0,1.091,1.079A1.088,1.088,0,0,0,6.25,9Z" transform="translate(5.75 1.921)"/></svg>