<svg xmlns="http://www.w3.org/2000/svg" width="269.487" height="40.685" viewBox="0 0 269.487 40.685"><defs><style>.a,.b{fill:none;}.b{stroke:#707070;stroke-miterlimit:10;stroke-width:0.41px;}.c{clip-path:url(#a);}.d{fill:#9cc221;}.e{fill:#707070;}</style><clipPath id="a"><rect class="a" width="269.487" height="40.685"/></clipPath></defs><g transform="translate(134.743 20.343)"><g transform="translate(-134.743 -20.343)"><line class="b" y2="36.45" transform="translate(103.29 2.539)"/><g class="c"><path class="d" d="M113.423,26.105a8.355,8.355,0,0,0-.737,3.522v.819a7.372,7.372,0,0,0,1.556,5,5.242,5.242,0,0,0,4.259,1.8,5.816,5.816,0,0,0,3.932-1.311,4.915,4.915,0,0,0,1.638-3.522H121.2a2.785,2.785,0,0,1-.737,1.884,2.867,2.867,0,0,1-1.966.573,2.375,2.375,0,0,1-2.13-1.065,6.225,6.225,0,0,1-.655-3.276v-.983a5.816,5.816,0,0,1,.737-3.195,2.457,2.457,0,0,1,2.13-1.065,2.785,2.785,0,0,1,1.966.573,2.949,2.949,0,0,1,.737,1.966h2.867a5.324,5.324,0,0,0-1.72-3.6,6.307,6.307,0,0,0-6.962-.491,5.324,5.324,0,0,0-2.048,2.375M12.1,11.771a5.078,5.078,0,0,1-.655,2.867,2.13,2.13,0,0,1-1.884.983,2.212,2.212,0,0,1-1.966-.983,5.078,5.078,0,0,1-.655-2.867V11.2a5,5,0,0,1,.655-2.867,2.212,2.212,0,0,1,1.884-.983,2.212,2.212,0,0,1,1.966.983A5,5,0,0,1,12.1,11.2ZM13.983,14.8a7.208,7.208,0,0,0,.655-3.113V11.2a7.126,7.126,0,0,0-.655-3.113,4.751,4.751,0,0,0-1.8-2.048,5.028,5.028,0,0,0-5.242,0A4.751,4.751,0,0,0,5.055,8.085,7.126,7.126,0,0,0,4.4,11.2v.573A6.962,6.962,0,0,0,5.055,14.8a4.751,4.751,0,0,0,1.8,2.048,5,5,0,0,0,2.621.737,4.915,4.915,0,0,0,2.621-.737A4.669,4.669,0,0,0,13.9,14.8m9.911-5.324a1.638,1.638,0,0,1-.491,1.311,2.13,2.13,0,0,1-1.474.491h-2.13V7.512h2.294a1.827,1.827,0,0,1,1.884,1.966m1.311,2.785a3.44,3.44,0,0,0,1.229-2.785A3.932,3.932,0,0,0,25.86,7.43,3.6,3.6,0,0,0,24.3,6.037a5.406,5.406,0,0,0-2.375-.491H17.26V17.423h2.457V13.245h2.13a5,5,0,0,0,3.358-.983M28.973,17.5H37V15.457H31.43V12.262h4.751V10.3H31.43V7.512h5.488V5.464H28.973Zm17.529,0h2.457V5.464H46.5v7.863L41.669,5.464H39.212V17.423h2.457V9.559Zm12.123-5.652a4.259,4.259,0,0,1-.819,2.7,2.7,2.7,0,0,1-2.212.983H54.447V7.512h1.229a2.7,2.7,0,0,1,2.212.9,4.341,4.341,0,0,1,.737,2.785Zm1.8,2.867a6.225,6.225,0,0,0,.655-2.949V11.2a6.225,6.225,0,0,0-.737-2.949A4.915,4.915,0,0,0,58.379,6.2a5.57,5.57,0,0,0-2.785-.737h-3.6V17.423h3.686a5.652,5.652,0,0,0,2.785-.737,4.915,4.915,0,0,0,1.966-2.048m9.42-1.72H66.816L68.29,8.413Zm1.474,4.423h2.621L69.437,5.464H67.143L62.72,17.423h2.621l.819-2.457H70.5Zm8.928-9.829h3.686V5.464H74.188V7.512h3.6v9.911h2.457ZM91.225,13H88.276l1.474-4.505ZM92.7,17.423h2.621L90.9,5.464H88.6L84.181,17.423H86.8l.819-2.457h4.341Zm30.88,0L126.2,5.464h-2.457l-1.638,8.519-1.8-8.519h-2.048l-1.966,8.519-1.638-8.519h-2.457l2.621,11.959h2.457l1.966-7.945,1.966,7.945Zm4.833,0h8.027V15.457h-5.57V12.262h4.751V10.3H130.87V7.512h5.488V5.464h-7.945Zm7.126,13.024a5.9,5.9,0,0,1-.819,3.276,2.785,2.785,0,0,1-4.505-.082,5.98,5.98,0,0,1-.819-3.358v-.655a5.815,5.815,0,0,1,.819-3.276,2.785,2.785,0,0,1,4.505,0,5.9,5.9,0,0,1,.819,3.358Zm2.212,3.6a8.436,8.436,0,0,0,.737-3.6v-.655a8.355,8.355,0,0,0-.737-3.6,5.57,5.57,0,0,0-2.13-2.375,6.143,6.143,0,0,0-6.225,0,5.57,5.57,0,0,0-2.13,2.375,8.355,8.355,0,0,0-.737,3.6v.655a8.191,8.191,0,0,0,.737,3.6,5.57,5.57,0,0,0,2.13,2.375,6.143,6.143,0,0,0,6.225,0,5.488,5.488,0,0,0,2.048-2.375m7.454-20.15a1.392,1.392,0,0,1-.491,1.147,2.048,2.048,0,0,1-1.392.41h-2.13V12.262H143.4a1.474,1.474,0,0,1,1.72,1.638m-.246-4.915q0,1.474-1.884,1.474h-1.8V7.512h1.72a2.457,2.457,0,0,1,1.474.328,1.393,1.393,0,0,1,.491,1.147m2.212,3.195a2.539,2.539,0,0,0-1.474-.9,2.621,2.621,0,0,0,1.229-.983,2.7,2.7,0,0,0,.491-1.556,2.867,2.867,0,0,0-1.147-2.457,5.488,5.488,0,0,0-3.276-.819h-4.177V17.423H143.4a4.915,4.915,0,0,0,3.113-.9A3.113,3.113,0,0,0,147.58,13.9a2.7,2.7,0,0,0-.491-1.72m6.225,24.9h2.867V23.075h-3.768l-3.6,10.157-3.522-10.157h-3.768V37.081h2.867v-3.85l-.328-6.553,3.768,10.4h2.048l3.768-10.4-.328,6.635Zm14.171-9.338a1.966,1.966,0,0,1-.573,1.556,2.539,2.539,0,0,1-1.72.573h-2.539V25.45h2.621a2.114,2.114,0,0,1,2.212,2.294m1.474,3.195a4.014,4.014,0,0,0,1.392-3.276,4.587,4.587,0,0,0-.655-2.375,4.259,4.259,0,0,0-1.8-1.638,6.307,6.307,0,0,0-2.785-.573h-5.488V37.081h2.867V32.167h2.539a5.9,5.9,0,0,0,3.932-1.147m12.942-.491a5.9,5.9,0,0,1-.819,3.276,2.785,2.785,0,0,1-4.505-.082,5.98,5.98,0,0,1-.819-3.358v-.655a5.816,5.816,0,0,1,.819-3.276,2.785,2.785,0,0,1,4.505,0,5.9,5.9,0,0,1,.819,3.358Zm2.212,3.6a8.437,8.437,0,0,0,.737-3.6v-.655a8.356,8.356,0,0,0-.737-3.6,5.57,5.57,0,0,0-2.13-2.375,6.143,6.143,0,0,0-6.225,0,5.57,5.57,0,0,0-2.13,2.375,8.355,8.355,0,0,0-.737,3.6v.655a8.191,8.191,0,0,0,.737,3.6,5.57,5.57,0,0,0,2.13,2.375,6.143,6.143,0,0,0,6.225,0,5.488,5.488,0,0,0,2.048-2.375m12.287,3.031h2.867V23.075h-2.621v9.256l-5.652-9.256h-2.867V37.081h2.867V27.907Zm6.389,0h9.338V34.788h-6.471V31.02h5.734V28.808h-5.488V25.45h6.471V23.075h-9.338Zm20.56,0h2.867V23.075h-2.867v9.256l-5.406-9.256h-2.867V37.081h2.867V27.907ZM235.88,25.532h4.259V23.075H229v2.294h4.259V37.081h2.867Zm14.007,1.8h2.867a4.014,4.014,0,0,0-.655-2.212,4.259,4.259,0,0,0-1.8-1.556,6.308,6.308,0,0,0-2.7-.573,6.881,6.881,0,0,0-2.7.491,4.178,4.178,0,0,0-1.8,1.392,3.358,3.358,0,0,0-.655,2.048,3.779,3.779,0,0,0,2.375,3.44l2.375.983a7.536,7.536,0,0,1,2.048.9,1.474,1.474,0,0,1,.573,1.229,1.393,1.393,0,0,1-.573,1.147,2.7,2.7,0,0,1-1.638.41q-2.785,0-2.785-2.294h-2.867a4.177,4.177,0,0,0,.655,2.375,4.669,4.669,0,0,0,2.048,1.638,7.126,7.126,0,0,0,2.949.573,5.979,5.979,0,0,0,3.686-1.065,3.358,3.358,0,0,0,1.393-2.867,3.686,3.686,0,0,0-1.147-2.7,8.764,8.764,0,0,0-3.6-1.8,7.782,7.782,0,0,1-2.048-.9,1.311,1.311,0,0,1-.655-1.147,1.393,1.393,0,0,1,.573-1.147,2.621,2.621,0,0,1,1.638-.41,2.457,2.457,0,0,1,1.72.573,1.884,1.884,0,0,1,.573,1.474" transform="translate(-0.796 -0.959)"/><path class="e" d="M61.227,35.772h1.638v4.587h1.147V35.772h1.72v-.9H61.227ZM14.21,40.523h3.031V25.779H14.21v5.9H8.231V25.7H5.2V40.441H8.231V34.134H14.21Zm16.546-1.229a5,5,0,0,0,1.556-3.85V25.7H29.2v9.829q0,2.7-2.621,2.7a2.7,2.7,0,0,1-1.884-.655,2.785,2.785,0,0,1-.655-2.13V25.7H20.927v9.829a4.915,4.915,0,0,0,1.556,3.768,5.9,5.9,0,0,0,4.1,1.392,5.816,5.816,0,0,0,4.177-1.392M43.862,36.1a1.72,1.72,0,0,1-.573,1.392,2.539,2.539,0,0,1-1.72.491H39.029V34.052h2.785a1.884,1.884,0,0,1,2.13,2.048m-.41-5.979q0,1.8-2.294,1.8H39.029V28.154h2.13a3.031,3.031,0,0,1,1.884.41,1.72,1.72,0,0,1,.573,1.474m2.7,3.932a3.113,3.113,0,0,0-1.8-1.147,3.2,3.2,0,0,0,1.556-1.147,3.358,3.358,0,0,0,.573-1.884,3.522,3.522,0,0,0-1.392-3.031,6.8,6.8,0,0,0-4.1-1.065H36V40.441h5.734a6.143,6.143,0,0,0,3.85-1.147A3.932,3.932,0,0,0,46.975,36.1a3.358,3.358,0,0,0-.655-2.13M54.1,28.892a.614.614,0,0,1,0-.983l.655-.164a.983.983,0,0,1,.655.246.737.737,0,0,1,.246.573H56.8a1.556,1.556,0,0,0-.246-.9,1.72,1.72,0,0,0-.737-.573l-1.065-.246-1.065.164a1.638,1.638,0,0,0-.737.573,1.311,1.311,0,0,0-.246.819,1.556,1.556,0,0,0,.9,1.392l.9.41.819.328a.614.614,0,0,1,0,.983l-.655.164q-1.065,0-1.065-.9H52.463a1.638,1.638,0,0,0,.246.983,1.884,1.884,0,0,0,.819.655,2.785,2.785,0,0,0,1.147.246,2.375,2.375,0,0,0,1.474-.41,1.311,1.311,0,0,0,.573-1.147,1.474,1.474,0,0,0-.41-1.065A3.44,3.44,0,0,0,54.92,29.3l-.819-.328m1.474,9.338H54.183l.655-2.048Zm.655,2.048h1.229l-2.048-5.57H54.265l-2.048,5.57h1.229l.41-1.147h1.966Zm2.949-5.57H58.032v5.57h3.522v-.9H59.1ZM60,26.516a.41.41,0,0,0,0-.655l-.41-.164-.41.164a.491.491,0,0,0,0,.655l.41.164.41-.164m1.884,0a.41.41,0,0,0,0-.655l-.41-.164-.41.164a.41.41,0,0,0-.164.328.491.491,0,0,0,.164.328l.41.164.41-.164m.246,5.57a1.884,1.884,0,0,0,.573-1.474V27.09H61.555v3.686a.869.869,0,0,1-.983.983.983.983,0,0,1-.737-.246,1.065,1.065,0,0,1-.246-.819v-3.6H58.442v3.686a1.8,1.8,0,0,0,.573,1.392,2.71,2.71,0,0,0,3.113,0m5.652-2.13a1.966,1.966,0,0,1-.328,1.229,1.229,1.229,0,0,1-.983.41H65.9V27.991h.573a1.229,1.229,0,0,1,.983.41,2.048,2.048,0,0,1,.328,1.311Zm.819,1.311a2.867,2.867,0,0,0,.328-1.392v-.246a2.867,2.867,0,0,0-.328-1.392,2.293,2.293,0,0,0-.9-.9,2.621,2.621,0,0,0-1.311-.328h-1.72v5.57h1.72a2.621,2.621,0,0,0,1.311-.328,2.293,2.293,0,0,0,.9-.9m1.147,6.307a2.294,2.294,0,0,1-.328,1.311,1.072,1.072,0,0,1-1.8,0,2.375,2.375,0,0,1-.328-1.311v-.246a2.294,2.294,0,0,1,.328-1.311,1.065,1.065,0,0,1,1.8,0,2.293,2.293,0,0,1,.328,1.311Zm.9-1.72a2.212,2.212,0,0,0-.819-.983,2.457,2.457,0,0,0-2.457,0,2.212,2.212,0,0,0-.819.983,3.276,3.276,0,0,0-.328,1.474v.246a3.2,3.2,0,0,0,.328,1.392,2.212,2.212,0,0,0,.819.983,2.468,2.468,0,0,0,2.457,0,2.212,2.212,0,0,0,.819-.983,3.359,3.359,0,0,0,.328-1.392v-.246a3.277,3.277,0,0,0-.328-1.474m2.621-8.109h1.72V27.09H70.4v.9h1.638v4.587h1.147Zm3.44,4.587h1.147V27.09H76.708Zm0,5.734H75.316l.655-2.048Zm.655,2.048h1.229l-2.048-5.57H75.479l-2.048,5.57H74.66l.41-1.147h1.966Zm3.031-4.505h.573a1.229,1.229,0,0,1,.983.41,2.048,2.048,0,0,1,.328,1.311v.328a1.966,1.966,0,0,1-.328,1.229,1.229,1.229,0,0,1-.983.41h-.573Zm.573-.9h-1.72v5.57h1.72a2.621,2.621,0,0,0,1.311-.328,2.294,2.294,0,0,0,.9-.9,2.867,2.867,0,0,0,.328-1.392v-.246a2.867,2.867,0,0,0-.328-1.392,2.294,2.294,0,0,0-.9-.9,2.621,2.621,0,0,0-1.311-.328m1.966-5.979a.819.819,0,0,1-.246.573.9.9,0,0,1-.655.246h-.983V28.154h.9a.9.9,0,0,1,.655.246.819.819,0,0,1,.246.655m.164,3.768h1.229L83.015,30.53a1.638,1.638,0,0,0,.737-.573A1.72,1.72,0,0,0,84,28.974a1.474,1.474,0,0,0-.491-1.229,2.294,2.294,0,0,0-1.474-.41H79.9v5.57h1.147V30.612h.9ZM84.49,40.6h1.147V34.871H84.49Zm4.833-10.4a2.375,2.375,0,0,1-.328,1.311,1.065,1.065,0,0,1-1.8,0,2.375,2.375,0,0,1-.328-1.311v-.246a2.294,2.294,0,0,1,.328-1.311,1.065,1.065,0,0,1,1.8,0,2.294,2.294,0,0,1,.328,1.311Zm.9,1.392a3.358,3.358,0,0,0,.328-1.392v-.246a3.276,3.276,0,0,0-.328-1.474A2.211,2.211,0,0,0,89.4,27.5a2.457,2.457,0,0,0-2.457,0,2.212,2.212,0,0,0-.819.983,3.276,3.276,0,0,0-.328,1.474V30.2a3.277,3.277,0,0,0,.328,1.392,2.212,2.212,0,0,0,.819.983,2.457,2.457,0,0,0,2.457,0,2.212,2.212,0,0,0,.819-.983m.082,8.846a1.966,1.966,0,0,0,.9-.573V37.492H88.995v.819H90.06v.983a1.229,1.229,0,0,1-.9.246,1.147,1.147,0,0,1-.983-.41,2.211,2.211,0,0,1-.328-1.311v-.41a2.293,2.293,0,0,1,.328-1.311.983.983,0,0,1,.9-.41.986.986,0,0,1,1.065.9h1.147a1.966,1.966,0,0,0-.655-1.392,2.621,2.621,0,0,0-2.785-.164,2.048,2.048,0,0,0-.819.9,3.44,3.44,0,0,0-.246,1.474v.41a3.194,3.194,0,0,0,.328,1.392,2.048,2.048,0,0,0,.819.9,2.457,2.457,0,0,0,1.229.328l1.229-.164m5.57-5.406H92.271v5.57h3.686v-.983H93.418V37.984H95.63v-.9H93.418V35.772h2.539Zm0-2.212v-.983H93.5V27.09H92.353v5.57Z" transform="translate(-0.941 -4.646)"/></g></g></g></svg>
