<?xml version="1.0" standalone="no"?>
<!DOCTYPE svg PUBLIC "-//W3C//DTD SVG 20010904//EN"
 "http://www.w3.org/TR/2001/REC-SVG-20010904/DTD/svg10.dtd">
<svg version="1.0" xmlns="http://www.w3.org/2000/svg"
 width="1000.000000pt" height="466.000000pt" viewBox="0 0 1000.000000 466.000000"
 preserveAspectRatio="xMidYMid meet">
<metadata>
Created by potrace 1.16, written by Peter Selinger 2001-2019
</metadata>
<g transform="translate(0.000000,466.000000) scale(0.100000,-0.100000)"
fill="#000000" stroke="none">
<path d="M60 2800 l0 -1800 640 0 640 0 0 322 0 323 323 -323 322 -322 773 0
772 0 0 1800 0 1800 -645 0 -645 0 0 -332 0 -333 -333 333 -332 332 -758 0
-757 0 0 -1800z m1450 1734 c0 -15 -925 -1503 -930 -1497 -7 8 -440 1481 -440
1496 0 4 308 7 685 7 377 0 685 -2 685 -6z m1950 -6 c0 -24 -443 -2273 -449
-2280 -3 -4 -167 365 -363 818 l-358 825 0 325 0 324 585 0 c446 0 585 -3 585
-12z m-1235 -668 c-2 -3 -209 -474 -460 -1045 -251 -572 -458 -1041 -459
-1042 -6 -6 -691 1162 -691 1176 0 9 216 366 479 794 l480 778 327 -327 c180
-180 326 -330 324 -334z m-1885 -223 l202 -688 -210 -837 -210 -837 0 1550 c0
853 3 1539 7 1525 5 -14 99 -335 211 -713z m3138 -1686 l-3 -779 -212 480
-211 480 211 1081 212 1081 3 -782 c1 -430 1 -1133 0 -1561z m-853 1021 c196
-452 355 -827 353 -832 -5 -14 -968 -1060 -976 -1060 -4 0 -152 145 -329 322
l-322 323 456 1038 c251 570 457 1036 459 1035 1 -2 163 -373 359 -826z
m-1677 -718 l332 -561 0 -321 0 -322 -575 0 c-316 0 -575 2 -575 3 0 5 440
1778 446 1801 5 16 8 14 23 -10 10 -16 167 -281 349 -590z m2290 -690 c123
-279 221 -508 219 -510 -2 -2 -315 -3 -696 -2 l-693 3 467 508 c256 279 469
507 473 507 4 0 108 -228 230 -506z"/>
<path d="M4935 4264 c-253 -184 -467 -342 -477 -352 -15 -16 -368 -1085 -368
-1116 0 -32 353 -1102 369 -1118 9 -9 221 -166 471 -347 l455 -331 593 0 594
0 451 329 c249 181 460 335 469 343 10 8 87 230 197 568 l181 555 -181 555
c-99 305 -183 558 -187 562 -4 3 -218 160 -476 347 l-469 341 -581 0 -581 -1
-460 -335z m2059 -54 l454 -330 -336 -840 c-263 -656 -338 -836 -346 -823 -5
10 -303 535 -663 1166 -359 632 -653 1150 -653 1153 0 2 245 4 545 4 l545 0
454 -330z m-1640 273 c-6 -27 -244 -1637 -244 -1651 0 -9 -116 -12 -475 -12
-374 0 -475 3 -475 13 1 6 76 243 168 525 l167 513 430 314 c237 172 431 314
432 314 0 1 -1 -7 -3 -16z m711 -1152 c355 -623 645 -1134 645 -1136 0 -2
-348 136 -773 306 l-773 309 123 823 c67 452 122 826 123 831 0 5 2 7 5 4 3
-3 296 -515 650 -1137z m1580 -33 c87 -271 158 -499 158 -508 -2 -18 -330
-1030 -336 -1036 -3 -3 -149 84 -326 192 -251 153 -321 200 -316 213 57 153
651 1631 655 1631 3 0 77 -222 165 -492z m-2412 -1362 c70 -455 126 -831 123
-833 -3 -3 -198 135 -433 306 l-428 311 -168 518 c-92 284 -167 520 -167 525
0 4 212 6 472 5 l472 -3 129 -829z m712 500 c418 -167 758 -308 756 -313 -6
-11 -1275 -1023 -1279 -1019 -3 4 -252 1603 -252 1624 0 6 3 12 8 12 4 0 349
-137 767 -304z m1173 -546 c166 -102 301 -189 299 -194 -3 -9 -830 -615 -834
-612 -1 1 46 226 105 499 66 307 111 497 117 495 6 -2 147 -86 313 -188z
m-495 -330 c-58 -272 -109 -498 -112 -503 -4 -4 -241 -6 -526 -5 l-520 3 630
502 c346 277 630 501 632 500 1 -2 -45 -226 -104 -497z"/>
<path d="M8440 2800 l0 -1800 750 0 750 0 0 1800 0 1800 -750 0 -750 0 0
-1800z m1399 1688 c-12 -29 -95 -242 -186 -473 -91 -231 -168 -423 -172 -428
-6 -6 -734 726 -895 901 l-49 52 661 0 662 0 -21 -52z m-491 -868 l108 -115
-135 -609 -136 -609 -339 -148 c-187 -82 -343 -149 -348 -149 -4 0 -8 564 -8
1253 l1 1252 374 -380 c206 -209 424 -432 483 -495z m540 -566 l-3 -465 -182
466 -182 466 182 463 182 463 3 -464 c1 -255 1 -673 0 -929z m-189 -150 l191
-491 -2 -637 -3 -638 -319 563 c-176 310 -319 570 -319 576 -1 31 249 1131
255 1125 3 -4 92 -228 197 -498z m-889 -1245 l-320 -534 2 399 3 398 315 138
c173 76 316 137 318 136 1 -2 -142 -244 -318 -537z m728 -29 c177 -313 322
-572 322 -575 0 -3 -302 -5 -671 -5 -377 0 -669 4 -667 9 8 21 683 1141 688
1141 3 0 151 -256 328 -570z"/>
<path d="M920 511 c-95 -19 -153 -84 -166 -185 -25 -177 144 -308 304 -236 46
21 48 26 27 54 -13 18 -16 18 -49 2 -19 -9 -51 -16 -73 -16 -156 0 -195 241
-51 316 34 18 70 18 113 0 33 -14 36 -14 50 7 21 30 19 34 -17 45 -51 16 -100
20 -138 13z"/>
<path d="M5585 515 c-5 -2 -27 -6 -48 -10 -47 -8 -104 -57 -128 -110 -44 -97
-10 -238 71 -291 75 -50 193 -44 261 13 110 93 94 303 -29 370 -35 19 -105 35
-127 28z m94 -82 c85 -63 79 -242 -9 -288 -48 -25 -113 -20 -151 12 -116 98
-47 317 95 299 22 -2 51 -13 65 -23z"/>
<path d="M7730 510 c-58 -11 -100 -39 -130 -87 -97 -153 0 -352 171 -353 126
0 206 75 216 204 6 66 -16 136 -55 179 -40 45 -133 71 -202 57z m124 -76 c78
-57 84 -205 11 -274 -33 -31 -110 -38 -154 -16 -85 44 -105 189 -37 265 47 52
127 63 180 25z"/>
<path d="M9342 508 c-87 -19 -152 -110 -152 -213 0 -102 62 -191 150 -215 55
-15 145 -8 194 15 l36 17 0 99 0 99 -80 0 -80 0 0 -30 c0 -29 2 -30 45 -30
l45 0 0 -50 c0 -45 -3 -52 -26 -60 -45 -17 -108 -12 -145 13 -97 64 -90 235
11 288 43 23 77 24 131 3 39 -16 41 -16 62 4 21 22 21 22 2 36 -21 15 -103 37
-133 35 -9 -1 -36 -5 -60 -11z"/>
<path d="M70 480 l0 -30 60 0 60 0 0 -185 0 -185 30 0 30 0 0 185 0 185 60 0
60 0 0 30 0 30 -150 0 -150 0 0 -30z"/>
<path d="M450 295 l0 -215 120 0 120 0 0 25 c0 25 -1 25 -85 25 l-85 0 0 70 0
70 70 0 70 0 0 30 0 30 -70 0 -70 0 0 60 0 60 80 0 80 0 0 30 0 30 -115 0
-115 0 0 -215z"/>
<path d="M1180 295 l0 -215 35 0 35 0 0 95 0 95 110 0 110 0 0 -95 0 -95 30 0
30 0 0 215 0 215 -30 0 -30 0 0 -90 0 -90 -110 0 -110 0 0 90 0 90 -35 0 -35
0 0 -215z"/>
<path d="M1660 296 l0 -216 35 0 35 0 0 79 0 78 54 6 c98 10 146 53 146 132 0
89 -51 126 -182 133 l-88 4 0 -216z m163 143 c30 -16 37 -28 37 -66 0 -42 -39
-73 -91 -73 l-39 0 0 75 0 75 36 0 c19 0 45 -5 57 -11z"/>
<path d="M2091 488 c-88 -230 -151 -396 -151 -401 0 -4 15 -7 33 -7 30 0 34 4
50 50 l18 50 89 0 88 0 17 -50 c16 -49 18 -50 56 -50 l39 0 -13 33 c-8 17 -45
114 -83 214 l-69 183 -33 0 c-25 0 -35 -5 -41 -22z"/>
<path d="M2390 295 l0 -215 35 0 35 0 0 80 c0 78 0 80 25 80 24 0 80 -59 122
-131 14 -24 24 -29 55 -29 21 0 38 3 38 8 0 4 -27 44 -59 89 -54 75 -58 83
-40 88 32 11 59 64 59 118 0 86 -65 127 -202 127 l-68 0 0 -215z m187 129 c40
-54 -4 -124 -78 -124 l-39 0 0 76 0 77 52 -5 c34 -4 56 -12 65 -24z"/>
<path d="M2780 295 l0 -215 35 0 34 0 3 96 3 96 75 -96 c74 -95 75 -96 118
-96 l43 0 -45 58 c-25 31 -66 82 -90 112 l-44 55 65 75 c35 41 73 87 84 103
l20 27 -39 0 c-38 0 -43 -4 -113 -91 l-74 -91 -3 91 -3 91 -34 0 -35 0 0 -215z"/>
<path d="M3374 491 c-41 -25 -60 -78 -44 -125 13 -41 40 -66 106 -99 76 -39
95 -71 63 -111 -25 -31 -85 -35 -130 -9 -28 16 -29 16 -44 -2 -8 -11 -13 -24
-12 -30 6 -20 73 -45 120 -45 96 0 147 45 147 129 0 51 -31 88 -108 129 -33
18 -65 38 -71 46 -19 23 -9 59 21 76 25 14 32 13 75 -2 45 -16 49 -17 61 -1
19 27 14 40 -19 52 -51 17 -130 13 -165 -8z"/>
<path d="M3670 348 c0 -184 8 -215 69 -255 43 -29 139 -32 191 -5 64 32 75 65
79 255 l3 167 -36 0 -36 0 0 -161 0 -161 -29 -29 c-24 -23 -38 -29 -73 -29
-87 1 -101 32 -106 228 l-4 152 -29 0 -29 0 0 -162z"/>
<path d="M4110 296 l0 -216 98 0 c108 0 157 16 204 66 37 40 49 78 49 150 0
144 -70 203 -253 212 l-98 5 0 -217z m225 130 c36 -24 58 -73 58 -132 0 -96
-51 -148 -156 -160 l-57 -7 0 163 0 163 65 -5 c36 -3 76 -13 90 -22z"/>
<path d="M4480 480 l0 -30 60 0 60 0 0 -185 0 -185 35 0 35 0 0 185 0 185 60
0 60 0 0 30 0 30 -155 0 -155 0 0 -30z"/>
<path d="M4860 295 l0 -215 35 0 35 0 0 215 0 215 -35 0 -35 0 0 -215z"/>
<path d="M5050 295 l0 -215 35 0 35 0 0 80 0 80 29 0 c26 0 37 -11 86 -80 54
-77 58 -80 96 -80 46 0 48 -6 -29 99 l-54 73 32 27 c55 46 59 141 7 189 -32
30 -78 42 -164 42 l-73 0 0 -215z m181 136 c28 -22 32 -83 7 -108 -9 -8 -39
-18 -67 -21 l-51 -5 0 77 0 76 44 0 c28 0 52 -7 67 -19z"/>
<path d="M5910 295 l0 -215 115 0 115 0 0 25 c0 25 -1 25 -80 25 l-80 0 0 190
0 190 -35 0 -35 0 0 -215z"/>
<path d="M6361 308 c-41 -112 -76 -209 -78 -215 -4 -9 6 -13 28 -13 l34 0 73
203 c39 112 72 208 72 215 0 7 -13 12 -28 12 -27 0 -30 -5 -101 -202z"/>
<path d="M6699 483 c-63 -165 -149 -394 -149 -398 0 -3 15 -5 33 -5 31 0 34 4
51 50 l18 50 88 0 88 0 17 -50 c16 -49 18 -50 56 -50 l39 0 -13 33 c-8 17 -45
114 -83 214 l-69 183 -33 0 c-26 0 -34 -5 -43 -27z"/>
<path d="M7020 295 l0 -215 115 0 115 0 0 25 c0 25 -1 25 -85 25 l-85 0 0 190
0 190 -30 0 -30 0 0 -215z"/>
<path d="M7240 480 l0 -30 60 0 60 0 0 -185 0 -185 35 0 35 0 0 185 0 185 60
0 60 0 0 30 0 30 -155 0 -155 0 0 -30z"/>
<path d="M8231 343 c-35 -93 -72 -190 -83 -216 l-18 -48 37 3 c35 3 38 6 52
51 l15 48 89 -3 89 -3 18 -45 c16 -41 21 -45 54 -48 20 -2 36 -1 36 3 0 4
-121 323 -155 408 -5 11 -18 17 -39 17 l-31 0 -64 -167z"/>
<path d="M8590 295 l0 -215 98 0 c86 0 105 3 150 26 75 37 107 94 107 189 0
151 -85 215 -286 215 l-69 0 0 -215z m229 128 c44 -32 63 -80 57 -142 -8 -90
-60 -138 -161 -148 l-55 -6 0 163 0 163 66 -6 c43 -3 76 -12 93 -24z"/>
<path d="M9030 295 l0 -215 35 0 35 0 0 215 0 215 -35 0 -35 0 0 -215z"/>
<path d="M9670 295 l0 -215 120 0 120 0 0 25 c0 25 -1 25 -85 25 l-85 0 0 70
0 69 73 3 c70 3 72 4 75 31 l3 27 -75 0 -76 0 0 60 0 60 85 0 85 0 0 30 0 30
-120 0 -120 0 0 -215z"/>
</g>
</svg>
