<svg width="21" height="22" viewBox="0 0 21 22" fill="none" xmlns="http://www.w3.org/2000/svg">
<path d="M0 3.28396C0 1.83441 0.973802 0.51123 2.75787 0.51123C4.54193 0.51123 5.5083 1.81954 5.5083 3.25423C5.5083 4.70378 4.57167 6.04926 2.78017 6.04926C0.996103 6.04183 0 4.72608 0 3.28396ZM4.31149 3.28396C4.31149 2.28786 3.85061 1.42556 2.78017 1.42556C1.70973 1.42556 1.20424 2.25813 1.20424 3.25423C1.20424 4.25777 1.69486 5.1275 2.75787 5.1275C3.83574 5.1275 4.31149 4.28007 4.31149 3.28396Z" fill="black"/>
<path d="M6.50439 0.60791H8.25872C9.41837 0.60791 10.303 1.14313 10.303 2.29534C10.303 3.45498 9.46297 4.04967 8.13235 4.04967H7.64174V5.95267H6.50439V0.60791ZM8.14722 3.18737C8.86085 3.18737 9.16562 2.89746 9.16562 2.30277C9.16562 1.76755 8.86828 1.47021 8.16952 1.47021H7.64174V3.18737H8.14722Z" fill="black"/>
<path d="M11.2617 0.60791H14.3392V1.53711H12.3768V2.74135H14.1088V3.62595H12.3768V5.01604H14.3987V5.94524H11.2617V0.60791Z" fill="black"/>
<path d="M15.5063 0.60791H16.6437L18.569 3.37321C18.8886 3.83409 19.0819 4.18347 19.1265 4.27268H19.1414C19.1339 4.19834 19.1116 3.84153 19.1116 3.43268V0.60791H20.1375V5.95267H19.1042L17.0302 2.98666C16.7403 2.58525 16.5842 2.2879 16.5173 2.18383H16.5025C16.5099 2.25817 16.5322 2.56295 16.5322 2.89746V5.95267H15.5063V0.60791Z" fill="black"/>
<path d="M0.297363 7.61035H1.91045C4.01416 7.61035 4.96567 8.66592 4.96567 10.2121C4.96567 11.7509 3.99186 12.9551 1.87329 12.9551H0.297363V7.61035ZM1.95506 12.0482C3.1593 12.0482 3.76886 11.4312 3.76886 10.2418C3.76886 9.04504 3.1816 8.51725 1.91789 8.51725H1.42727V12.0482H1.95506Z" fill="black"/>
<path d="M7.50811 7.61035H8.60085L10.6971 12.9551H9.46315L9.0989 11.9516H6.95802L6.60121 12.9551H5.46387L7.50811 7.61035ZM8.77182 11.0447L8.31094 9.77353C8.13996 9.31265 8.07306 8.9707 8.02103 8.85176H8.00616C7.96899 8.97813 7.87979 9.34238 7.72368 9.77353L7.27023 11.0447H8.77182Z" fill="black"/>
<path d="M12.6668 8.54699H11.1875V7.61035H15.2685V8.54699H13.8041V12.9551H12.6668V8.54699Z" fill="black"/>
<path d="M17.8112 7.61035H18.904L21.0002 12.9551H19.7663L19.402 11.9516H17.2686L16.9118 12.9551H15.7744L17.8112 7.61035ZM19.0749 11.0447L18.6141 9.77353C18.4431 9.31265 18.3762 8.9707 18.3241 8.85176H18.3167C18.2795 8.97813 18.1903 9.34238 18.0342 9.77353L17.5808 11.0447H19.0749Z" fill="black"/>
<path d="M0.297363 14.3972H1.47931V17.2294H4.96567V14.3972H6.14761V21.3625H4.96567V18.2032H1.47931V21.3625H0.297363V14.3972Z" fill="black"/>
<path d="M8.15479 18.7013V14.3898H9.33673V18.5898C9.33673 19.8906 9.84221 20.5076 11.0316 20.5076C12.1615 20.5076 12.667 19.794 12.667 18.7087V14.3972H13.7672V18.6121C13.7672 20.4184 12.8677 21.4889 11.0019 21.4889C9.03195 21.4889 8.15479 20.4407 8.15479 18.7013Z" fill="black"/>
<path d="M15.9155 14.3898H18.0192C19.3201 14.3898 20.3757 14.8432 20.3757 16.1292C20.3757 16.999 19.8925 17.497 19.1268 17.6977V17.72C19.9743 17.8538 20.6656 18.4337 20.6656 19.4149C20.6656 20.8347 19.5654 21.3625 17.9895 21.3625H15.9155V14.3898ZM17.8854 17.3112C18.7998 17.3112 19.1937 16.9841 19.1937 16.2853C19.1937 15.6163 18.7552 15.319 17.9077 15.319H17.0826V17.3112H17.8854ZM17.9449 20.4333C18.9559 20.4333 19.4614 20.1211 19.4614 19.3554C19.4614 18.6195 19.0525 18.2032 18.0044 18.2032H17.0752V20.4333H17.9449Z" fill="black"/>
</svg>
