<svg width="48" height="49" viewBox="0 0 48 49" fill="none" xmlns="http://www.w3.org/2000/svg">
<path d="M0 6.39498C0 3.07818 2.22583 0.0505371 6.30369 0.0505371C10.3816 0.0505371 12.5904 3.04416 12.5904 6.32695C12.5904 9.64375 10.4495 12.7224 6.35467 12.7224C2.27681 12.7054 0 9.69478 0 6.39498ZM9.85483 6.39498C9.85483 4.11575 8.80138 2.14267 6.35467 2.14267C3.90795 2.14267 2.75256 4.04771 2.75256 6.32695C2.75256 8.62319 3.87397 10.6133 6.30369 10.6133C8.7674 10.6133 9.85483 8.67422 9.85483 6.39498Z" fill="#12100B"/>
<path d="M14.8672 0.271606H18.8771C21.5277 0.271606 23.5496 1.49627 23.5496 4.1327C23.5496 6.78614 21.6296 8.14688 18.5882 8.14688H17.4668V12.5012H14.8672V0.271606ZM18.6222 6.17381C20.2534 6.17381 20.95 5.51045 20.95 4.14971C20.95 2.92505 20.2704 2.24468 18.6732 2.24468H17.4668V6.17381H18.6222Z" fill="#12100B"/>
<path d="M25.7402 0.271606H32.7745V2.39776H28.2889V5.15326H32.2478V7.17735H28.2889V10.3581H32.9105V12.4842H25.7402V0.271606Z" fill="#12100B"/>
<path d="M35.4434 0.271606H38.043L42.4437 6.59904C43.1743 7.65362 43.6161 8.45305 43.718 8.65716H43.752C43.735 8.48707 43.684 7.67063 43.684 6.73512V0.271606H46.0288V12.5012H43.667L38.9265 5.71456C38.2639 4.79606 37.9071 4.11569 37.7541 3.87757H37.7202C37.7372 4.04766 37.7881 4.74504 37.7881 5.51045V12.5012H35.4434V0.271606Z" fill="#12100B"/>
<path d="M0.679688 16.2943H4.36675C9.17523 16.2943 11.3501 18.7096 11.3501 22.2475C11.3501 25.7685 9.12426 28.524 4.2818 28.524H0.679688V16.2943ZM4.4687 26.4488C7.22126 26.4488 8.61453 25.0371 8.61453 22.3156C8.61453 19.5771 7.27223 18.3694 4.38375 18.3694H3.26233V26.4488H4.4687Z" fill="#12100B"/>
<path d="M17.1608 16.2943H19.6585L24.45 28.524H21.6295L20.7969 26.2277H15.9035L15.0879 28.524H12.4883L17.1608 16.2943ZM20.0493 24.1526L18.9959 21.244C18.6051 20.1894 18.4522 19.407 18.3332 19.1349H18.2992C18.2143 19.424 18.0104 20.2575 17.6536 21.244L16.6171 24.1526H20.0493Z" fill="#12100B"/>
<path d="M28.9525 18.4375H25.5713V16.2943H34.8994V18.4375H31.5522V28.524H28.9525V18.4375Z" fill="#12100B"/>
<path d="M40.7102 16.2943H43.2079L47.9994 28.524H45.1789L44.3463 26.2277H39.4699L38.6543 28.524H36.0547L40.7102 16.2943ZM43.5987 24.1526L42.5453 21.244C42.1545 20.1894 42.0016 19.407 41.8826 19.1349H41.8656C41.7807 19.424 41.5768 20.2575 41.22 21.244L40.1835 24.1526H43.5987Z" fill="#12100B"/>
<path d="M0.679688 31.8237H3.38127V38.3043H11.3501V31.8237H14.0517V47.7614H11.3501V40.5325H3.38127V47.7614H0.679688V31.8237Z" fill="#12100B"/>
<path d="M18.6396 41.6721V31.8068H21.3412V41.417C21.3412 44.3936 22.4966 45.8054 25.2152 45.8054C27.7978 45.8054 28.9532 44.1725 28.9532 41.6891V31.8238H31.4679V41.468C31.4679 45.6013 29.412 48.0506 25.1472 48.0506C20.6446 48.0506 18.6396 45.6523 18.6396 41.6721Z" fill="#12100B"/>
<path d="M36.3789 31.8068H41.1874C44.1608 31.8068 46.5736 32.8443 46.5736 35.7869C46.5736 37.777 45.4691 38.9166 43.7191 39.3759V39.4269C45.656 39.7331 47.2362 41.0598 47.2362 43.305C47.2362 46.5538 44.7215 47.7614 41.1194 47.7614H36.3789V31.8068ZM40.8815 38.4914C42.9714 38.4914 43.872 37.743 43.872 36.1441C43.872 34.6133 42.8695 33.9329 40.9325 33.9329H39.0465V38.4914H40.8815ZM41.0175 45.6353C43.3283 45.6353 44.4837 44.9209 44.4837 43.1689C44.4837 41.485 43.5491 40.5325 41.1534 40.5325H39.0295V45.6353H41.0175Z" fill="#12100B"/>
</svg>
