<svg xmlns="http://www.w3.org/2000/svg" width="24" height="24" viewBox="0 0 24 24"><defs><style>.a,.b{fill:none;}.b{stroke:#fff;stroke-width:2.2px;}.c{fill:#fff;}</style></defs><rect class="a" width="24" height="24"/><g transform="translate(-665.387 -1432.567)"><path class="b" d="M22.5,4.5h7v7" transform="translate(656.513 1431.519)"/><path class="b" d="M11.5,29.5h-7v-7" transform="translate(665.537 1423.735)"/></g><path class="c" d="M7.207,7.383A5.33,5.33,0,0,0,2.25,10.724a5.347,5.347,0,0,0,9.913,0A5.33,5.33,0,0,0,7.207,7.383Zm0,5.57a2.228,2.228,0,1,1,2.253-2.228A2.247,2.247,0,0,1,7.207,12.952Zm0-3.565a1.337,1.337,0,1,0,1.352,1.337A1.349,1.349,0,0,0,7.207,9.388Z" transform="translate(5.75 1.741)"/></svg>