<svg xmlns="http://www.w3.org/2000/svg" width="141.678" height="141.678" viewBox="0 0 141.678 141.678"><defs><style>.a,.b{fill:none;}.c{clip-path:url(#a);}.d{fill:#2e3131;}.e,.f{stroke:none;}.f{fill:#9bc320;}</style><clipPath id="a"><rect class="a" width="65" height="55"/></clipPath></defs><g transform="translate(10 10)"><g class="b"><path class="e" d="M60.839,0A60.839,60.839,0,1,1,0,60.839,60.839,60.839,0,0,1,60.839,0Z"/><path class="f" d="M 60.8388671875 -7.62939453125e-06 C 27.23849487304688 -7.62939453125e-06 -7.62939453125e-06 27.23849487304688 -7.62939453125e-06 60.8388671875 C -7.62939453125e-06 94.43923950195313 27.23849487304688 121.6777420043945 60.8388671875 121.6777420043945 C 94.43923950195313 121.6777420043945 121.6777420043945 94.43923950195313 121.6777420043945 60.8388671875 C 121.6777420043945 27.23849487304688 94.43923950195313 -7.62939453125e-06 60.8388671875 -7.62939453125e-06 M 60.8388671875 -10.00001525878906 C 99.89956665039063 -10.00001525878906 131.677734375 21.77816772460938 131.677734375 60.8388671875 C 131.677734375 99.89956665039063 99.89956665039063 131.677734375 60.8388671875 131.677734375 C 21.77816772460938 131.677734375 -10.00001525878906 99.89956665039063 -10.00001525878906 60.8388671875 C -10.00001525878906 21.77816772460938 21.77816772460938 -10.00001525878906 60.8388671875 -10.00001525878906 Z"/></g><g class="c" transform="translate(32.551 34.816)"><path class="a" d="M0,0H65V55H0Z"/><path class="d" d="M22.045,40.722,8.061,26.806,3.4,31.445,22.045,50,62,10.239,57.339,5.6Z" transform="translate(0 0)"/></g></g></svg>
