<svg width="95" height="57" viewBox="0 0 95 57" fill="none" xmlns="http://www.w3.org/2000/svg">
<path d="M8.88272 45.93H6.44077V43.7569H8.53547V43.0736H6.44077V41.2365H8.82671V40.542H5.62305V46.6133H8.88272V45.93Z" fill="black"/>
<path d="M40.5941 43.3984L43.0025 40.542H42.0503L39.6644 43.432V40.542H38.8467V46.6133H39.6644V43.4768L42.1512 46.6133H43.1593L40.5941 43.3984Z" fill="black"/>
<path d="M16.9033 50.5563H18.6172V55.9331H19.4461V50.5563H21.1599V49.8618H16.9033V50.5563Z" fill="black"/>
<path d="M23.1863 49.8618H22.3574V55.9331H23.1863V49.8618Z" fill="black"/>
<path d="M83.2645 49.8618H82.4355V55.9331H83.2645V49.8618Z" fill="black"/>
<path d="M56.6475 50.5563H58.3613V55.9331H59.1902V50.5563H60.9041V49.8618H56.6475V50.5563Z" fill="black"/>
<path d="M14.7644 46.1094L14.3948 45.5269C14.0475 45.8182 13.5883 46.0422 12.9274 46.0422C11.4823 46.0422 10.7878 44.8436 10.7878 43.5555C10.7878 42.2785 11.5048 41.1247 12.9162 41.1247C13.4762 41.1247 13.9131 41.2815 14.2604 41.5168L14.6636 40.9007C14.2155 40.6094 13.7115 40.4414 12.9386 40.4414C11.0343 40.4414 9.93652 41.9312 9.93652 43.5667C9.93652 45.2133 11.0007 46.7255 12.9274 46.7255C13.7787 46.7255 14.462 46.4007 14.7644 46.1094Z" fill="black"/>
<path d="M21.0605 46.6133V40.542H20.2316V43.0848H16.9383V40.542H16.1094V46.6133H16.9383V43.7681H20.2316V46.6133H21.0605Z" fill="black"/>
<path d="M0.0898438 41.2365H1.80369V46.6133H2.63261V41.2365H4.34646V40.542H0.0898438V41.2365Z" fill="black"/>
<path d="M26.7578 42.3338C26.7578 41.1352 25.8281 40.5527 24.5847 40.5527H22.9717V46.624H23.8006V44.2269H24.4727C25.9177 44.2157 26.7578 43.5436 26.7578 42.3338ZM24.4951 43.5436H23.8118V41.2136H24.5287C25.5481 41.2136 25.9289 41.6729 25.9289 42.345C25.9177 43.1403 25.5032 43.5436 24.4951 43.5436Z" fill="black"/>
<path d="M26.9404 46.6133H27.7581L28.2734 45.1795H30.973L31.4995 46.6133H32.3956L30.0545 40.542H29.2592L26.9404 46.6133ZM29.6288 41.4941C29.7184 41.7518 29.7968 42.0318 29.9985 42.5471L30.7154 44.5074H28.5311L29.2592 42.5471C29.4272 42.0878 29.528 41.7742 29.6176 41.4941H29.6288Z" fill="black"/>
<path d="M36.4379 44.7539C36.1802 44.3954 36.0234 44.1938 35.9002 44.0818C36.6955 43.8241 37.1436 43.2304 37.1436 42.3455C37.1436 41.1469 36.2138 40.5645 34.9705 40.5645H33.3574V46.6357H34.1863V44.2386C34.1863 44.2386 34.6904 44.2386 34.8248 44.2386C34.9705 44.2386 35.0265 44.2834 35.0713 44.3058C35.2505 44.4178 35.4409 44.6754 35.833 45.2355L36.8075 46.6357H37.7485L36.4379 44.7539ZM34.8808 43.5441H34.1975V41.2141H34.9144C35.9338 41.2141 36.3147 41.6734 36.3147 42.3455C36.3034 43.1408 35.889 43.5441 34.8808 43.5441Z" fill="black"/>
<path d="M2.12934 52.4155C1.51325 52.1355 1.02038 51.8778 1.02038 51.2953C1.02038 50.7689 1.44604 50.4328 2.02853 50.4328C2.64462 50.4328 3.05908 50.6793 3.27191 50.8473L3.65277 50.2424C3.43993 50.0744 2.94706 49.7495 2.01733 49.7495C1.06519 49.7495 0.213866 50.3208 0.213866 51.3289C0.213866 52.2923 0.86356 52.7067 1.60287 53.0652C2.30857 53.4124 2.99187 53.6925 2.99187 54.387C2.99187 54.9023 2.5214 55.3503 1.8045 55.3503C1.00918 55.3503 0.561116 54.9583 0.426696 54.8351L0.0234375 55.4175C0.24747 55.6416 0.841157 56.0336 1.78209 56.0336C2.99187 56.0336 3.80959 55.3503 3.80959 54.3646C3.82079 53.2108 2.92466 52.7964 2.12934 52.4155Z" fill="black"/>
<path d="M8.41213 49.3919C8.71457 49.3919 8.9386 49.1678 8.9386 48.8766C8.9386 48.5966 8.71457 48.3613 8.41213 48.3613C8.13209 48.3613 7.89685 48.5966 7.89685 48.8766C7.88565 49.1678 8.13209 49.3919 8.41213 49.3919Z" fill="black"/>
<path d="M9.15092 53.6708C9.15092 54.6678 8.65805 55.3399 7.6051 55.3399C6.50734 55.3399 6.01447 54.7686 6.01447 53.5476V49.8511H5.18555V53.6372C5.18555 55.0934 5.90245 56.0344 7.5827 56.0344C9.17333 56.0344 9.91263 55.1046 9.91263 53.5812V49.8511H9.15092V53.6708Z" fill="black"/>
<path d="M6.15039 48.8766C6.15039 49.1678 6.37442 49.3919 6.66566 49.3919C6.95691 49.3919 7.19214 49.1678 7.19214 48.8766C7.19214 48.5966 6.95691 48.3613 6.66566 48.3613C6.37442 48.3613 6.15039 48.5854 6.15039 48.8766Z" fill="black"/>
<path d="M13.085 49.8618H11.584V55.9331H13.0402C15.4709 55.9331 16.5351 54.5777 16.5351 52.8302C16.5239 51.0716 15.4709 49.8618 13.085 49.8618ZM13.1074 55.261H12.4017V50.5339H13.0626C14.8325 50.5339 15.6614 51.2396 15.6614 52.8415C15.6614 54.4321 14.7876 55.261 13.1074 55.261Z" fill="black"/>
<path d="M27.6463 53.3906C28.4416 53.133 28.8897 52.5393 28.8897 51.6543C28.8897 50.4558 27.9599 49.8733 26.7166 49.8733H25.1035V55.9446H25.9324V53.5474C25.9324 53.5474 26.4365 53.5474 26.5709 53.5474C26.7166 53.5474 26.7726 53.5922 26.8174 53.6146C26.9966 53.7266 27.187 53.9843 27.5791 54.5444L28.5536 55.9446H29.4946L28.1728 54.0739C27.9263 53.7042 27.7695 53.5026 27.6463 53.3906ZM26.6269 52.8641H25.9436V50.5342H26.6605C27.6799 50.5342 28.0607 50.9935 28.0607 51.6656C28.0607 52.4497 27.6351 52.8641 26.6269 52.8641Z" fill="black"/>
<path d="M54.2181 49.8618H53.4004V55.9331H56.5816V55.2498H54.2181V49.8618Z" fill="black"/>
<path d="M38.2855 49.8618H37.4678V55.9331H40.649V55.2498H38.2855V49.8618Z" fill="black"/>
<path d="M42.8037 55.9331H43.543L45.7273 49.8618H44.988L42.8037 55.9331Z" fill="black"/>
<path d="M32.9429 49.7495C31.0386 49.7495 29.9297 51.2393 29.9297 52.9084C29.9297 54.5662 31.0499 56.0448 32.9541 56.0448C34.8472 56.0448 35.9562 54.555 35.9562 52.886C35.9562 51.2169 34.836 49.7495 32.9429 49.7495ZM32.9429 55.3615C31.5427 55.3615 30.8034 54.2078 30.8034 52.886C30.8034 51.5642 31.5651 50.4328 32.9653 50.4328C34.3655 50.4328 35.0936 51.5866 35.0936 52.9084C35.0824 54.2302 34.3431 55.3615 32.9429 55.3615Z" fill="black"/>
<path d="M48.9598 49.8618L46.6299 55.9331H47.4476L47.9741 54.4993H50.6737L51.2001 55.9331H52.0963L49.7551 49.8618H48.9598ZM48.2317 53.816L48.9598 51.8557C49.1278 51.3852 49.2287 51.0828 49.3183 50.8028H49.3407C49.4303 51.0604 49.5087 51.3404 49.7103 51.8557L50.4272 53.816H48.2317Z" fill="black"/>
<path d="M77.6153 49.8618H76.1143V55.9331H77.5705C80.0012 55.9331 81.0654 54.5777 81.0654 52.8302C81.0542 51.0716 80.0012 49.8618 77.6153 49.8618ZM77.6377 55.261H76.932V50.5339H77.5929C79.3627 50.5339 80.1916 51.2396 80.1916 52.8415C80.1916 54.4321 79.3179 55.261 77.6377 55.261Z" fill="black"/>
<path d="M71.7811 49.8618L69.4512 55.9331H70.2689L70.7842 54.4993H73.4838L74.0102 55.9331H74.9064L72.5652 49.8618H71.7811ZM71.053 53.816L71.7811 51.8557C71.9491 51.3852 72.0499 51.0828 72.1396 50.8028H72.162C72.2516 51.0604 72.33 51.3404 72.5316 51.8557L73.2485 53.816H71.053Z" fill="black"/>
<path d="M64.252 49.7495C62.3478 49.7495 61.25 51.2393 61.25 52.8972C61.25 54.555 62.3702 56.0336 64.2744 56.0336C66.1675 56.0336 67.2765 54.5438 67.2765 52.886C67.2653 51.2169 66.1451 49.7495 64.252 49.7495ZM64.252 55.3615C62.8518 55.3615 62.1125 54.2078 62.1125 52.886C62.1125 51.5642 62.8742 50.4328 64.2744 50.4328C65.6746 50.4328 66.4027 51.5866 66.4027 52.9084C66.3915 54.2302 65.6522 55.3615 64.252 55.3615Z" fill="black"/>
<path d="M87.855 53.4012H89.1208V55.0031C88.8408 55.2159 88.3367 55.3503 87.7094 55.3503C86.186 55.3503 85.5027 54.1518 85.5027 52.8636C85.5027 51.5866 86.1972 50.4328 87.7206 50.4328C88.3591 50.4328 88.8072 50.5672 89.2664 50.9257L89.6809 50.3096C89.1992 49.9399 88.5831 49.7495 87.7542 49.7495C85.7715 49.7495 84.6514 51.2281 84.6514 52.8748C84.6514 54.5102 85.7491 56.0336 87.7094 56.0336C88.74 56.0336 89.5017 55.776 89.9609 55.4175V52.7179H87.855V53.4012Z" fill="black"/>
<path d="M92.4818 55.2386V53.0767H94.5653V52.3934H92.4818V50.5563H94.8565V49.8618H91.6641V55.9331H94.9237V55.2386H92.4818Z" fill="black"/>
<path d="M12.4114 29.5762L18.6731 35.838H33.6385V0.967285H20.9806V7.21779L14.7301 0.967285H0V35.838H12.4114V29.5762ZM19.5132 35.1659L28.4969 25.3868L32.8096 35.1659H19.5132ZM32.9664 33.8441L28.9786 24.8043L32.9664 4.4846V33.8441ZM32.8432 1.63938L28.5193 23.7066L21.6527 7.88989V1.63938H32.8432ZM21.3167 8.79722L28.2169 24.7035L18.7739 34.9866L12.5458 28.7585L21.3167 8.79722ZM13.9908 1.63938L5.07434 16.0895L0.828921 1.63938H13.9908ZM0.672098 3.48765L4.61507 16.9072L0.672098 32.7575V3.48765ZM11.7393 35.1659H0.761711L5.08554 17.7809L11.7393 29.0162V35.1659ZM5.35438 16.9072L14.6517 1.82981L20.891 8.06912L12.0417 28.2096L5.35438 16.9072Z" fill="black"/>
<path d="M71.7911 7.62029L62.6281 0.955322H51.2921L42.1292 7.62029L38.623 18.3963L42.1292 29.1722L51.2921 35.8372H62.6281L71.7911 29.1722L75.2972 18.3963L71.8247 7.72111L71.7911 7.62029ZM62.4153 1.63862L71.1078 7.95634L64.678 24.0307L51.9194 1.63862H62.4153ZM51.5385 2.32192L63.9723 24.1539L49.175 18.2282L51.5385 2.32192ZM42.7004 8.03475L50.8888 2.08669L48.5141 18.0602H39.4408L42.7004 8.03475ZM42.7004 28.7578L39.4408 18.7323H48.4693L50.956 34.7618L42.7004 28.7578ZM49.1862 18.9451L63.9611 24.8596L51.6281 34.7058L49.1862 18.9451ZM62.1017 35.1651H52.1322L64.1516 25.5653L62.1017 35.1651ZM62.8634 34.829L64.9021 25.3189L70.9061 28.993L62.8634 34.829ZM71.3206 28.4553L65.1373 24.6692L71.4774 8.80767L74.5915 18.3851L71.3206 28.4553Z" fill="black"/>
<path d="M94.8113 0.967041H80.126V35.8377H94.8001V0.967041H94.8113ZM93.8592 1.63914L90.2523 10.8021L81.2573 1.63914H93.8592ZM80.7981 2.12081L90.0058 11.5078L87.3958 23.2583L80.7981 26.1483V2.12081ZM80.7981 26.8764L86.8582 24.2216L80.7981 34.2919V26.8764ZM81.0557 35.1656L87.6759 24.1656L93.9152 35.1656H81.0557ZM94.1392 34.1911L88.0455 23.4487L90.4651 12.5495L94.1392 21.9365V34.1911ZM94.1392 20.0882L90.7451 11.3958L94.1392 2.7593V20.0882Z" fill="black"/>
</svg>
