<svg width="63" height="63" viewBox="0 0 63 63" fill="none" xmlns="http://www.w3.org/2000/svg">
<path d="M0 8.35189C0 4.00323 2.9214 0.0336914 8.2736 0.0336914C13.6258 0.0336914 16.5249 3.95863 16.5249 8.26269C16.5249 12.6113 13.715 16.6478 8.3405 16.6478C2.98831 16.6255 0 12.6782 0 8.35189ZM12.9345 8.35189C12.9345 5.36358 11.5518 2.77669 8.3405 2.77669C5.12919 2.77669 3.61273 5.27438 3.61273 8.26269C3.61273 11.2733 5.08458 13.8825 8.2736 13.8825C11.5072 13.8825 12.9345 11.3402 12.9345 8.35189Z" fill="#12100B"/>
<path d="M19.5127 0.323486H24.7757C28.2546 0.323486 30.9084 1.92914 30.9084 5.38577C30.9084 8.86469 28.3884 10.6488 24.3966 10.6488H22.9247V16.3578H19.5127V0.323486ZM24.4412 8.06187C26.5821 8.06187 27.4964 7.19213 27.4964 5.40807C27.4964 3.80241 26.6044 2.91038 24.5081 2.91038H22.9247V8.06187H24.4412Z" fill="#12100B"/>
<path d="M33.7852 0.323486H43.0177V3.11109H37.1303V6.72382H42.3264V9.37761H37.1303V13.5479H43.1961V16.3355H33.7852V0.323486Z" fill="#12100B"/>
<path d="M46.5186 0.323486H49.9306L55.7065 8.61939C56.6654 10.002 57.2452 11.0502 57.379 11.3178H57.4236C57.4013 11.0948 57.3344 10.0243 57.3344 8.79779V0.323486H60.412V16.3578H57.3121L51.0902 7.45974C50.2205 6.2555 49.7522 5.36347 49.5515 5.05126H49.5069C49.5292 5.27427 49.5961 6.1886 49.5961 7.19213V16.3578H46.5186V0.323486Z" fill="#12100B"/>
<path d="M0.892578 21.3311H5.73185C12.043 21.3311 14.8975 24.4978 14.8975 29.1363C14.8975 33.7526 11.9761 37.3653 5.62035 37.3653H0.892578V21.3311ZM5.86566 34.6446C9.47839 34.6446 11.3071 32.7937 11.3071 29.2255C11.3071 25.6351 9.54529 24.0518 5.75415 24.0518H4.2823V34.6446H5.86566Z" fill="#12100B"/>
<path d="M22.5233 21.3311H25.8016L32.0904 37.3653H28.3885L27.2957 34.3547H20.8731L19.8026 37.3653H16.3906L22.5233 21.3311ZM26.3145 31.634L24.9318 27.8206C24.4189 26.4379 24.2182 25.4121 24.0621 25.0553H24.0175C23.906 25.4344 23.6384 26.5271 23.1701 27.8206L21.8097 31.634H26.3145Z" fill="#12100B"/>
<path d="M38.0004 24.141H33.5625V21.3311H45.8056V24.141H41.4124V37.3653H38.0004V24.141Z" fill="#12100B"/>
<path d="M53.4327 21.3311H56.7109L62.9997 37.3653H59.2978L58.2051 34.3547H51.8047L50.7343 37.3653H47.3223L53.4327 21.3311ZM57.2238 31.634L55.8412 27.8206C55.3283 26.4379 55.1275 25.4121 54.9714 25.0553H54.9491C54.8376 25.4344 54.57 26.5271 54.1017 27.8206L52.7414 31.634H57.2238Z" fill="#12100B"/>
<path d="M0.892578 41.6914H4.43841V50.188H14.8975V41.6914H18.4433V62.5873H14.8975V53.1094H4.43841V62.5873H0.892578V41.6914Z" fill="#12100B"/>
<path d="M24.4639 54.6037V41.6692H28.0097V54.2691C28.0097 58.1718 29.5261 60.0228 33.0943 60.0228C36.484 60.0228 38.0005 57.8819 38.0005 54.626V41.6915H41.301V54.336C41.301 59.7551 38.6026 62.9665 33.0051 62.9665C27.0954 62.9665 24.4639 59.822 24.4639 54.6037Z" fill="#12100B"/>
<path d="M47.7461 41.6692H54.0572C57.9599 41.6692 61.1266 43.0295 61.1266 46.8876C61.1266 49.4968 59.677 50.9909 57.38 51.5931V51.66C59.9223 52.0614 61.9963 53.8008 61.9963 56.7445C61.9963 61.004 58.6958 62.5873 53.968 62.5873H47.7461V41.6692ZM53.6558 50.4334C56.3988 50.4334 57.5807 49.4522 57.5807 47.3559C57.5807 45.3488 56.265 44.4568 53.7227 44.4568H51.2473V50.4334H53.6558ZM53.8342 59.7997C56.8671 59.7997 58.3836 58.8631 58.3836 56.5661C58.3836 54.3583 57.157 53.1095 54.0126 53.1095H51.225V59.7997H53.8342Z" fill="#12100B"/>
</svg>
